<?xml version="1.0" encoding="utf-8"?>
<!DOCTYPE svg PUBLIC "-//W3C//DTD SVG 1.1//EN" "http://www.w3.org/Graphics/SVG/1.1/DTD/svg11.dtd"><svg id="icon_layer" data-name="icon_layer" xmlns="http://www.w3.org/2000/svg" viewBox="0 0 420.71 424"><defs><style>.cls-1{fill:#f7931a;}.cls-2{fill:#fff;}</style></defs><title>crypto logo</title><path class="cls-1" d="M414.41,262.89C386.32,375.57,272.18,444.15,159.48,416.05S-21.75,273.82,6.36,161.14,148.57-20.15,261.24,7.94,442.51,150.19,414.41,262.89Z"/><path class="cls-2" d="M303.13,182c4.18-28-17.13-43-46.27-53.07l9.45-37.91-23.07-5.76L234,122.21c-6.06-1.51-12.3-2.94-18.49-4.35l9.27-37.16L201.74,75l-9.45,37.9c-5-1.14-10-2.28-14.74-3.47l0-.11-31.82-8L139.61,126s17.12,3.92,16.76,4.17c9.35,2.33,11,8.52,10.75,13.42l-10.76,43.19a19.94,19.94,0,0,1,2.39.77l-2.43-.6-15.1,60.51c-1.14,2.84-4,7.09-10.57,5.48.23.33-16.78-4.19-16.78-4.19l-11.46,26.42,30,7.49c5.59,1.4,11.06,2.86,16.45,4.24l-9.55,38.35L162.4,331,171.86,293c6.3,1.71,12.41,3.29,18.39,4.77l-9.42,37.77,23.08,5.75L213.46,303c39.35,7.45,69,4.45,81.4-31.15,10-28.66-.5-45.19-21.2-56C288.74,212.44,300.1,202.52,303.13,182ZM250.39,256c-7.13,28.66-55.38,13.16-71,9.28L192,214.45C207.68,218.36,257.85,226.09,250.39,256Zm7.14-74.36c-6.51,26.07-46.67,12.82-59.7,9.58l11.49-46.08C222.35,148.36,264.31,154.43,257.53,181.62Z"/></svg>